<svg xmlns="http://www.w3.org/2000/svg" viewBox="0 0 138.91 140.98"><defs><style>.cls-1{fill:#fb8500;}.cls-2{fill:#fff;}</style></defs><g id="Capa_2" data-name="Capa 2"><g id="OBJECTS"><rect class="cls-1" y="65.53" width="19.84" height="19.84"/><rect class="cls-1" x="19.84" y="45.69" width="19.84" height="19.84"/><rect class="cls-1" x="119.07" y="65.53" width="19.84" height="19.84"/><rect class="cls-1" x="99.22" y="45.69" width="19.85" height="19.84"/><polygon class="cls-1" points="79.38 25.84 79.38 6 59.53 6 59.53 25.84 39.69 25.84 39.69 45.69 59.53 45.69 59.53 140.98 79.38 140.98 79.38 45.69 99.22 45.69 99.22 25.84 79.38 25.84"/><rect class="cls-2" y="59.53" width="19.84" height="19.84"/><rect class="cls-2" x="19.84" y="39.69" width="19.84" height="19.84"/><rect class="cls-2" x="119.07" y="59.53" width="19.84" height="19.84"/><rect class="cls-2" x="99.22" y="39.69" width="19.85" height="19.84"/><polygon class="cls-2" points="79.38 19.84 79.38 0 59.53 0 59.53 19.84 39.69 19.84 39.69 39.69 59.53 39.69 59.53 134.98 79.38 134.98 79.38 39.69 99.22 39.69 99.22 19.84 79.38 19.84"/></g></g></svg>