<svg id="Capa_1" data-name="Capa 1" xmlns="http://www.w3.org/2000/svg" viewBox="0 0 1549.9 871.98"><defs><style>.cls-1{fill:#fff;stroke:#000;}.cls-1,.cls-2,.cls-3{stroke-miterlimit:10;}.cls-2,.cls-3{fill:none;}.cls-2{stroke:#e6e6e6;}.cls-3{stroke:#b3b3b3;}</style></defs><rect class="cls-1" x="5.45" y="1.48" width="1541" height="870"/><rect class="cls-2" x="5.76" y="10.08" width="1541" height="0.8"/><rect class="cls-2" x="4.99" y="23.86" width="1541" height="0.8"/><rect class="cls-2" x="5.49" y="38.29" width="1541" height="0.8"/><rect class="cls-2" x="5.67" y="39.36" width="1541" height="0.8"/><rect class="cls-2" x="6.17" y="53.8" width="1541" height="0.8"/><rect class="cls-2" x="5.41" y="67.57" width="1541" height="0.8"/><rect class="cls-2" x="5.91" y="82.01" width="1541" height="0.8"/><rect class="cls-2" x="6.54" y="96.77" width="1541" height="0.8"/><rect class="cls-2" x="7.04" y="111.2" width="1541" height="0.8"/><rect class="cls-2" x="6.27" y="124.98" width="1541" height="0.8"/><rect class="cls-2" x="6.77" y="139.41" width="1541" height="0.8"/><rect class="cls-2" x="5.1" y="154.67" width="1541" height="0.8"/><rect class="cls-2" x="5.6" y="169.11" width="1541" height="0.8"/><rect class="cls-2" x="4.84" y="182.88" width="1541" height="0.8"/><rect class="cls-2" x="5.34" y="197.31" width="1541" height="0.8"/><rect class="cls-2" x="5.97" y="212.08" width="1541" height="0.8"/><rect class="cls-2" x="6.47" y="226.51" width="1541" height="0.8"/><rect class="cls-2" x="5.71" y="240.29" width="1541" height="0.8"/><rect class="cls-2" x="6.21" y="254.72" width="1541" height="0.8"/><rect class="cls-2" x="6.31" y="269.14" width="1541" height="0.8"/><rect class="cls-2" x="6.81" y="283.57" width="1541" height="0.8"/><rect class="cls-2" x="6.05" y="297.34" width="1541" height="0.8"/><rect class="cls-2" x="6.55" y="311.78" width="1541" height="0.8"/><rect class="cls-2" x="7.18" y="326.54" width="1541" height="0.8"/><rect class="cls-2" x="7.68" y="340.98" width="1541" height="0.8"/><rect class="cls-2" x="6.91" y="354.75" width="1541" height="0.8"/><rect class="cls-2" x="7.41" y="369.19" width="1541" height="0.8"/><rect class="cls-2" x="5.75" y="384.44" width="1541" height="0.8"/><rect class="cls-2" x="6.25" y="398.88" width="1541" height="0.8"/><rect class="cls-2" x="5.48" y="412.65" width="1541" height="0.8"/><rect class="cls-2" x="5.98" y="427.09" width="1541" height="0.8"/><rect class="cls-2" x="6.61" y="441.85" width="1541" height="0.8"/><rect class="cls-2" x="7.11" y="456.29" width="1541" height="0.8"/><rect class="cls-2" x="6.35" y="470.06" width="1541" height="0.8"/><rect class="cls-2" x="6.85" y="484.49" width="1541" height="0.8"/><rect class="cls-2" x="7.03" y="485.57" width="1541" height="0.8"/><rect class="cls-2" x="7.53" y="500" width="1541" height="0.8"/><rect class="cls-2" x="6.76" y="513.78" width="1541" height="0.8"/><rect class="cls-2" x="7.26" y="528.21" width="1541" height="0.8"/><rect class="cls-2" x="7.9" y="542.97" width="1541" height="0.8"/><rect class="cls-2" x="8.4" y="557.41" width="1541" height="0.8"/><rect class="cls-2" x="7.63" y="571.18" width="1541" height="0.8"/><rect class="cls-2" x="8.13" y="585.62" width="1541" height="0.8"/><rect class="cls-2" x="6.46" y="600.88" width="1541" height="0.8"/><rect class="cls-2" x="6.96" y="615.31" width="1541" height="0.8"/><rect class="cls-2" x="6.2" y="629.08" width="1541" height="0.8"/><rect class="cls-2" x="6.7" y="643.52" width="1541" height="0.8"/><rect class="cls-2" x="7.33" y="658.28" width="1541" height="0.8"/><rect class="cls-2" x="7.83" y="672.72" width="1541" height="0.8"/><rect class="cls-2" x="7.06" y="686.49" width="1541" height="0.8"/><rect class="cls-2" x="7.56" y="700.93" width="1541" height="0.8"/><rect class="cls-2" x="6.04" y="715.98" width="1541" height="0.8"/><rect class="cls-2" x="5.27" y="729.75" width="1541" height="0.8"/><rect class="cls-2" x="5.77" y="744.19" width="1541" height="0.8"/><rect class="cls-2" x="4.1" y="759.44" width="1541" height="0.8"/><rect class="cls-2" x="4.6" y="773.88" width="1541" height="0.8"/><rect class="cls-2" x="3.84" y="787.65" width="1541" height="0.8"/><rect class="cls-2" x="4.34" y="802.09" width="1541" height="0.8"/><rect class="cls-2" x="4.97" y="816.85" width="1541" height="0.8"/><rect class="cls-2" x="5.47" y="831.29" width="1541" height="0.8"/><rect class="cls-2" x="4.71" y="845.06" width="1541" height="0.8"/><rect class="cls-2" x="5.21" y="859.49" width="1541" height="0.8"/><rect class="cls-3" x="2.42" y="0.5" width="1541" height="0.8"/><rect class="cls-3" x="1.65" y="14.27" width="1541" height="0.8"/><rect class="cls-3" x="2.15" y="28.71" width="1541" height="0.8"/><rect class="cls-3" x="2.33" y="29.78" width="1541" height="0.8"/><rect class="cls-3" x="2.83" y="44.21" width="1541" height="0.8"/><rect class="cls-3" x="2.07" y="57.99" width="1541" height="0.8"/><rect class="cls-3" x="2.57" y="72.42" width="1541" height="0.8"/><rect class="cls-3" x="3.2" y="87.19" width="1541" height="0.8"/><rect class="cls-3" x="3.7" y="101.62" width="1541" height="0.8"/><rect class="cls-3" x="2.93" y="115.4" width="1541" height="0.8"/><rect class="cls-3" x="3.43" y="129.83" width="1541" height="0.8"/><rect class="cls-3" x="1.77" y="145.09" width="1541" height="0.8"/><rect class="cls-3" x="2.27" y="159.52" width="1541" height="0.8"/><rect class="cls-3" x="1.5" y="173.3" width="1541" height="0.8"/><rect class="cls-3" x="2" y="187.73" width="1541" height="0.8"/><rect class="cls-3" x="2.63" y="202.5" width="1541" height="0.8"/><rect class="cls-3" x="3.13" y="216.93" width="1541" height="0.8"/><rect class="cls-3" x="2.37" y="230.71" width="1541" height="0.8"/><rect class="cls-3" x="2.87" y="245.14" width="1541" height="0.8"/><rect class="cls-3" x="2.97" y="259.55" width="1541" height="0.8"/><rect class="cls-3" x="3.47" y="273.99" width="1541" height="0.8"/><rect class="cls-3" x="2.71" y="287.76" width="1541" height="0.8"/><rect class="cls-3" x="3.21" y="302.2" width="1541" height="0.8"/><rect class="cls-3" x="3.84" y="316.96" width="1541" height="0.8"/><rect class="cls-3" x="4.34" y="331.4" width="1541" height="0.8"/><rect class="cls-3" x="3.58" y="345.17" width="1541" height="0.8"/><rect class="cls-3" x="4.08" y="359.6" width="1541" height="0.8"/><rect class="cls-3" x="2.41" y="374.86" width="1541" height="0.8"/><rect class="cls-3" x="2.91" y="389.3" width="1541" height="0.8"/><rect class="cls-3" x="2.14" y="403.07" width="1541" height="0.8"/><rect class="cls-3" x="2.64" y="417.51" width="1541" height="0.8"/><rect class="cls-3" x="3.27" y="432.27" width="1541" height="0.8"/><rect class="cls-3" x="3.77" y="446.7" width="1541" height="0.8"/><rect class="cls-3" x="3.01" y="460.48" width="1541" height="0.8"/><rect class="cls-3" x="3.51" y="474.91" width="1541" height="0.8"/><rect class="cls-3" x="3.69" y="475.99" width="1541" height="0.8"/><rect class="cls-3" x="4.19" y="490.42" width="1541" height="0.8"/><rect class="cls-3" x="3.42" y="504.19" width="1541" height="0.8"/><rect class="cls-3" x="3.92" y="518.63" width="1541" height="0.8"/><rect class="cls-3" x="4.56" y="533.39" width="1541" height="0.8"/><rect class="cls-3" x="5.06" y="547.83" width="1541" height="0.8"/><rect class="cls-3" x="4.29" y="561.6" width="1541" height="0.8"/><rect class="cls-3" x="4.79" y="576.04" width="1541" height="0.8"/><rect class="cls-3" x="3.12" y="591.29" width="1541" height="0.8"/><rect class="cls-3" x="3.62" y="605.73" width="1541" height="0.8"/><rect class="cls-3" x="2.86" y="619.5" width="1541" height="0.8"/><rect class="cls-3" x="3.36" y="633.94" width="1541" height="0.8"/><rect class="cls-3" x="3.99" y="648.7" width="1541" height="0.8"/><rect class="cls-3" x="4.49" y="663.14" width="1541" height="0.8"/><rect class="cls-3" x="3.73" y="676.91" width="1541" height="0.8"/><rect class="cls-3" x="4.23" y="691.34" width="1541" height="0.8"/><rect class="cls-3" x="2.7" y="706.4" width="1541" height="0.8"/><rect class="cls-3" x="1.93" y="720.17" width="1541" height="0.8"/><rect class="cls-3" x="2.43" y="734.6" width="1541" height="0.8"/><rect class="cls-3" x="0.77" y="749.86" width="1541" height="0.8"/><rect class="cls-3" x="1.27" y="764.3" width="1541" height="0.8"/><rect class="cls-3" x="0.5" y="778.07" width="1541" height="0.8"/><rect class="cls-3" x="1" y="792.51" width="1541" height="0.8"/><rect class="cls-3" x="1.63" y="807.27" width="1541" height="0.8"/><rect class="cls-3" x="2.13" y="821.7" width="1541" height="0.8"/><rect class="cls-3" x="1.37" y="835.48" width="1541" height="0.8"/><rect class="cls-3" x="1.87" y="849.91" width="1541" height="0.8"/></svg>